<?xml version="1.0" encoding="UTF-8"?>
<svg width="2341px" height="666px" viewBox="0 0 2341 666" version="1.1" xmlns="http://www.w3.org/2000/svg" xmlns:xlink="http://www.w3.org/1999/xlink">
    <title>logo</title>
    <g id="Page-1" stroke="none" stroke-width="1" fill="none" fill-rule="evenodd">
        <g id="logo" fill="#4F46E5" fill-rule="nonzero">
            <path d="M235.2,266.9 L235.2,335 C261.3,340.9 284.5,350.6 308.8,357.3 L308.8,289.1 C282.8,283.3 259.4,273.6 235.2,266.9 L235.2,266.9 Z M458.5,143.9 C424.2,159.8 382,175.8 341.5,175.8 C288,175.8 243.7,141 176.3,141 C151.3,141 129,145.4 108.3,153 C111.1,145.7 112.4,137.8 111.9,129.4 C110.1,101 86.8,78.2 58.3,77 C26.3,75.7 0,101.3 0,133 C0,152 9.5,168.8 24,178.9 L24,565 C24,578.3 34.7,589 48,589 L64,589 C77.3,589 88,578.3 88,565 L88,470.6 C116.3,458.5 151.6,448.5 202.4,448.5 C256,448.5 300.2,483.3 367.6,483.3 C415.8,483.3 454.3,467 490.1,442.4 C498.8,436.4 503.900308,426.6 503.900308,416 L503.900308,172.9 C504,149.6 479.7,134.1 458.5,143.9 Z M161.6,402.5 C135.8,405.2 111.6,410.7 88,419.1 L88,348.6 C114.2,339.3 135.5,333.6 161.6,331.2 L161.6,402.5 Z M456,268 C432.4,277.8 409.7,287.5 382.4,291.9 L382.4,363 C407.2,359.6 433.8,351.2 456,337 L456,407.5 C430.9,423.6 407.5,432.2 382.4,434.6 L382.4,363 C355.4,366.7 334.5,364.5 308.8,357.4 L308.8,424.8 C284.9,417.4 261.5,408.1 235.2,403.5 L235.2,335 C215.5,330.6 194.4,328.2 161.6,331.2 L161.6,261.2 C139.2,264.3 117,271.4 88,282.1 L88,211.6 C121.2,199.4 138.1,191.8 161.6,189.6 L161.6,261.2 C188.6,257.5 210,259.9 235.2,266.9 L235.2,199.5 C258.9,206.9 282.4,216.2 308.8,220.8 L308.8,289.2 C332.5,294.5 356.4,296.1 382.4,291.9 L382.4,220 C409.4,215.2 434.7,206.4 456,197.5 L456,268 Z" id="Shape"></path>
            <path d="M752.913956,533 L752.913956,363.078287 L919.124735,363.078287 L919.124735,302.336157 L752.913956,302.336157 L752.913956,193.742511 L936.702843,193.742511 L936.702843,133.000381 L680.453087,133.000381 L680.453087,533 L752.913956,533 Z M1133.81231,533 L1133.81231,133.000381 L1064.86706,133.000381 L965.453097,196.867508 L965.453097,263.273695 L1059.00769,203.508127 L1061.35144,203.508127 L1061.35144,533 L1133.81231,533 Z M1460.6091,533 L1460.6091,472.25787 L1284.43739,472.25787 L1284.43739,133.000381 L1211.97652,133.000381 L1211.97652,533 L1460.6091,533 Z M1579.0077,539.054682 C1626.07796,539.054682 1654.20294,516.98439 1667.09355,491.789102 L1669.4373,491.789102 L1669.4373,533 L1737.40598,533 L1737.40598,332.218941 C1737.40598,252.922142 1672.75761,229.09404 1615.5311,229.09404 C1552.44522,229.09404 1504.00777,257.219013 1488.38278,311.906461 L1554.39834,321.281452 C1561.42959,300.773659 1581.35144,283.195551 1615.92172,283.195551 C1648.73419,283.195551 1666.70292,299.99241 1666.70292,329.484569 L1666.70292,330.656443 C1666.70292,350.968924 1645.41388,351.945485 1592.48425,357.609542 C1534.28118,363.859536 1478.61717,381.242332 1478.61717,448.820393 C1478.61717,507.804712 1521.78119,539.054682 1579.0077,539.054682 Z M1597.36705,487.101606 C1567.87489,487.101606 1546.78116,473.625057 1546.78116,447.648519 C1546.78116,420.500107 1570.41395,409.171993 1602.05455,404.67981 C1608.17759,403.84192 1616.32123,402.770066 1624.81497,401.44319 L1626.36278,401.199125 C1643.16437,398.524542 1660.93145,394.8556 1666.89824,390.031386 L1666.89824,425.382915 C1666.89824,458.781321 1639.94514,487.101606 1597.36705,487.101606 Z M1851.89834,645.499893 L1851.89834,485.73442 L1854.82802,485.73442 C1865.96082,507.609399 1889.20299,538.273432 1940.76544,538.273432 C2011.4685,538.273432 2064.39813,482.218798 2064.39813,383.390768 C2064.39813,283.390863 2009.906,229.09404 1940.57013,229.09404 C1887.64049,229.09404 1865.5702,260.929947 1854.82802,282.609614 L1850.72646,282.609614 L1850.72646,233.000286 L1781.19528,233.000286 L1781.19528,645.499893 L1851.89834,645.499893 Z M1921.03889,480.265675 C1875.92175,480.265675 1850.53115,441.203213 1850.53115,383.000143 C1850.53115,324.797074 1875.53113,287.101797 1921.03889,287.101797 C1968.10916,287.101797 1992.32789,327.140821 1992.32789,383.000143 C1992.32789,439.250089 1967.71854,480.265675 1921.03889,480.265675 Z M2212.67954,538.859369 C2287.67947,538.859369 2340.60911,499.992219 2340.80442,443.156336 C2340.60911,400.382939 2313.07007,374.211089 2256.4295,361.906413 L2205.25767,350.968924 C2174.78895,344.132993 2162.67959,333.586128 2162.8749,316.203332 C2162.67959,295.890851 2185.14051,281.828365 2214.63267,281.828365 C2247.24982,281.828365 2264.43731,299.601785 2269.90605,319.328329 L2334.35911,312.297085 C2324.5935,261.515884 2283.96854,229.09404 2213.6561,229.09404 C2141.39055,229.09404 2092.17185,264.640881 2092.36716,320.109578 C2092.17185,363.859536 2119.12494,392.765759 2176.74208,404.67981 L2227.9139,415.421987 C2255.45294,421.476669 2268.34355,432.609471 2268.34355,449.601642 C2268.34355,470.109435 2246.07795,485.539108 2212.48423,485.539108 C2180.06239,485.539108 2158.96866,471.476621 2152.91397,444.523522 L2083.96873,451.164141 C2092.75778,506.242213 2139.0468,538.859369 2212.67954,538.859369 Z" id="F1Laps"></path>
        </g>
    </g>
</svg>